<svg width="98" height="98" viewBox="0 0 98 98" fill="none" xmlns="http://www.w3.org/2000/svg">
    <rect width="98" height="98" rx="40" fill="url(#paint0_linear_0_1)" />
    <g clip-path="url(#clip0_0_1)">
        <path fill-rule="evenodd" clip-rule="evenodd"
            d="M53 56.5C52.7238 56.5 52.5 56.7238 52.5 57V69C52.5 69.2762 52.7238 69.5 53 69.5H63C63.2762 69.5 63.5 69.2762 63.5 69V66.8286C63.5 66.351 63.7274 65.902 64.1124 65.6194C64.4976 65.3368 64.9942 65.2544 65.4498 65.3976L68.8496 66.4662C69.1718 66.5674 69.4996 66.3268 69.4996 65.9892V60.0106C69.4996 59.673 69.1718 59.4324 68.8496 59.5336L65.4498 60.6022C64.9942 60.7454 64.4976 60.663 64.1124 60.3804C63.7274 60.0978 63.5 59.6488 63.5 59.1712V57C63.5 56.7238 63.2762 56.5 63 56.5H53ZM49.5 57C49.5 55.067 51.067 53.5 53 53.5H63C64.933 53.5 66.5 55.067 66.5 57V57.1274L67.9502 56.6716C70.205 55.963 72.4996 57.647 72.4996 60.0106V65.9892C72.4996 68.3528 70.205 70.0368 67.9502 69.3282L66.5 68.8724V69C66.5 70.933 64.933 72.5 63 72.5H53C51.067 72.5 49.5 70.933 49.5 69V57ZM35 28.5C33.6193 28.5 32.5 29.6193 32.5 31C32.5 32.3807 33.6193 33.5 35 33.5C36.3807 33.5 37.5 32.3807 37.5 31C37.5 29.6193 36.3807 28.5 35 28.5ZM29.5 31C29.5 27.9624 31.9624 25.5 35 25.5C38.0376 25.5 40.5 27.9624 40.5 31C40.5 34.0376 38.0376 36.5 35 36.5C31.9624 36.5 29.5 34.0376 29.5 31ZM54 30.5C52.6192 30.5 51.5 31.6193 51.5 33C51.5 34.3807 52.6192 35.5 54 35.5C55.3808 35.5 56.5 34.3807 56.5 33C56.5 31.6193 55.3808 30.5 54 30.5ZM48.5 33C48.5 29.9624 50.9624 27.5 54 27.5C57.0376 27.5 59.5 29.9624 59.5 33C59.5 36.0376 57.0376 38.5 54 38.5C50.9624 38.5 48.5 36.0376 48.5 33ZM31 42.5C29.6193 42.5 28.5 43.6193 28.5 45V54.8824C28.5 55.1584 28.7239 55.3824 29 55.3824H31C31.8284 55.3824 32.5 56.054 32.5 56.8824V69C32.5 69.2762 32.7239 69.5 33 69.5H37C37.2761 69.5 37.5 69.2762 37.5 69V56.8824C37.5 56.054 38.1716 55.3824 39 55.3824H41C41.2761 55.3824 41.5 55.1584 41.5 54.8824V45C41.5 43.6193 40.3807 42.5 39 42.5H31ZM25.5 45C25.5 41.9624 27.9624 39.5 31 39.5H39C42.0376 39.5 44.5 41.9624 44.5 45V54.8824C44.5 56.8154 42.933 58.3824 41 58.3824H40.5V69C40.5 70.933 38.933 72.5 37 72.5H33C31.067 72.5 29.5 70.933 29.5 69V58.3824H29C27.067 58.3824 25.5 56.8154 25.5 54.8824V45ZM47.5 43C47.5 42.1716 48.1716 41.5 49 41.5H57C59.0376 41.5 60.8146 42.6089 61.7632 44.2489C62.178 44.966 61.933 45.8836 61.216 46.2984C60.4988 46.7132 59.5812 46.4682 59.1664 45.751C58.732 44.9999 57.9234 44.5 57 44.5H49C48.1716 44.5 47.5 43.8284 47.5 43Z"
            fill="url(#paint1_linear_0_1)" />
    </g>
    <defs>
        <linearGradient id="paint0_linear_0_1" x1="1.97998e-06" y1="3.43237" x2="73.3005"
            y2="128.215" gradientUnits="userSpaceOnUse">
            <stop stop-color="#303439" />
            <stop offset="1" stop-color="#05070F" />
        </linearGradient>
        <linearGradient id="paint1_linear_0_1" x1="48.9998" y1="25.5" x2="48.9998" y2="72.5"
            gradientUnits="userSpaceOnUse">
            <stop stop-color="white" />
            <stop offset="1" stop-color="#857E7E" />
        </linearGradient>
        <clipPath id="clip0_0_1">
            <rect width="48" height="48" fill="white" transform="translate(25 25)" />
        </clipPath>
    </defs>
</svg>