<svg width="98" height="98" viewBox="0 0 98 98" fill="none" xmlns="http://www.w3.org/2000/svg">
    <rect width="98" height="98" rx="40" fill="url(#paint0_linear_0_1)" />
    <g filter="url(#filter0_d_0_1)">
        <path fill-rule="evenodd" clip-rule="evenodd"
            d="M52 29.5C45.3859 29.5 40 34.8859 40 41.5C40 43.9668 40.7598 46.3744 42.1768 48.3936C42.2617 48.5146 42.3696 48.6177 42.4944 48.697C42.6192 48.7762 42.7583 48.8302 42.9039 48.8557C43.0496 48.8812 43.1988 48.8778 43.3431 48.8456C43.4874 48.8135 43.6239 48.7532 43.7449 48.6683C43.8659 48.5833 43.969 48.4754 44.0483 48.3506C44.1276 48.2259 44.1815 48.0867 44.207 47.9411C44.2325 47.7954 44.2291 47.6462 44.1969 47.5019C44.1647 47.3576 44.1045 47.2211 44.0195 47.1001C42.8681 45.4593 42.25 43.5045 42.25 41.5C42.25 36.1019 46.6019 31.75 52 31.75C57.3981 31.75 61.75 36.1019 61.75 41.5C61.75 46.8981 57.3981 51.25 52 51.25C49.9951 51.25 48.0394 50.6323 46.3984 49.4805C46.2778 49.3907 46.1404 49.3261 45.9943 49.2904C45.8482 49.2547 45.6965 49.2486 45.5481 49.2725C45.3996 49.2964 45.2575 49.3499 45.13 49.4297C45.0026 49.5094 44.8924 49.614 44.806 49.7371C44.7197 49.8601 44.6589 49.9993 44.6272 50.1463C44.5955 50.2933 44.5936 50.4451 44.6216 50.5929C44.6496 50.7406 44.707 50.8812 44.7902 51.0064C44.8735 51.1316 44.981 51.2388 45.1064 51.3218C47.1259 52.7393 49.5328 53.5 52 53.5C58.6141 53.5 64 48.1141 64 41.5C64 34.8859 58.6141 29.5 52 29.5ZM29.125 49.75C28.5037 49.7501 28.0001 50.2537 28 50.875V67.375C28.0001 67.9963 28.5037 68.4999 29.125 68.5H34.375C34.9963 68.4999 35.4999 67.9963 35.5 67.375V54.25H38.875C39.2262 54.25 40.7772 54.8583 42.0889 55.5991C42.8088 56.0046 43.3449 56.3291 43.769 56.5859L43.769 56.5859L43.769 56.5859C44.4932 57.0243 44.8907 57.265 45.3188 57.373C46.5126 57.7106 48.0063 57.8322 49.5571 57.9584C50.6242 58.0452 51.7183 58.1342 52.7603 58.2974C53.024 58.6607 53.1272 59.0525 53.1719 59.5H46.104C44.5826 59.4785 44.5826 61.7715 46.104 61.75H54.4053C55.017 61.7501 55.5167 61.2614 55.5303 60.6499C55.499 58.3427 54.8996 56.3931 53.0898 56.0752C51.791 55.8718 50.3856 55.7447 49.1463 55.6325L49.1463 55.6325L49.1462 55.6325C47.7101 55.5025 46.497 55.3927 45.9312 55.208C45.7305 55.1425 45.2162 54.8322 44.625 54.4754C44.1579 54.1935 43.6427 53.8826 43.1963 53.6406C43.111 53.5925 43.0257 53.544 42.9403 53.4956L42.9395 53.4951C41.6347 52.7547 40.3049 52 38.875 52H34.375C33.6873 52 33.25 52.5739 33.25 53.125V66.25H30.25V52H31.375C32.8964 52.0215 32.8964 49.7285 31.375 49.75H29.125ZM51.9824 35.5C51.7135 35.5042 51.4549 35.6046 51.2536 35.7831C51.0524 35.9615 50.9217 36.2061 50.8852 36.4726C49.7867 36.9202 49 38.0002 49 39.25C49 40.125 49.4225 40.8884 49.9155 41.3813C50.3731 41.8389 50.8748 42.1387 51.3193 42.4043L51.4214 42.4653C51.8901 42.7466 52.2835 42.9993 52.4936 43.2095C52.7038 43.4196 52.75 43.5 52.75 43.75C52.75 44.1775 52.4275 44.5 52 44.5C51.5725 44.5 51.25 44.1775 51.25 43.75C51.2521 43.6009 51.2246 43.4529 51.169 43.3146C51.1134 43.1762 51.0308 43.0503 50.9262 42.9442C50.8215 42.838 50.6968 42.7537 50.5592 42.6961C50.4217 42.6386 50.2741 42.609 50.125 42.609C49.9759 42.609 49.8283 42.6386 49.6908 42.6961C49.5532 42.7537 49.4285 42.838 49.3238 42.9442C49.2191 43.0503 49.1366 43.1762 49.081 43.3146C49.0254 43.4529 48.9979 43.6009 49 43.75C49 45.0003 49.7875 46.0801 50.8867 46.5273C50.9247 46.7957 51.0583 47.0414 51.263 47.2192C51.4677 47.3969 51.7296 47.4948 52.0007 47.4948C52.2718 47.4948 52.5338 47.3969 52.7385 47.2192C52.9431 47.0414 53.0768 46.7957 53.1147 46.5273C54.2133 46.0798 55 44.9998 55 43.75C55 42.875 54.5774 42.1116 54.0845 41.6186C53.6269 41.1611 53.1252 40.8613 52.6807 40.5957L52.5786 40.5347C52.1099 40.2534 51.7165 40.0007 51.5063 39.7905C51.2962 39.5804 51.25 39.5 51.25 39.25C51.25 38.8225 51.5725 38.5 52 38.5C52.4275 38.5 52.75 38.8225 52.75 39.25C52.7479 39.3991 52.7754 39.5471 52.831 39.6854C52.8866 39.8238 52.9691 39.9497 53.0738 40.0558C53.1785 40.162 53.3032 40.2463 53.4408 40.3038C53.5783 40.3614 53.7259 40.391 53.875 40.391C54.0241 40.391 54.1717 40.3614 54.3092 40.3038C54.4468 40.2463 54.5715 40.162 54.6762 40.0558C54.7808 39.9497 54.8634 39.8238 54.919 39.6854C54.9746 39.5471 55.0021 39.3991 55 39.25C55 37.9997 54.2125 36.9199 53.1133 36.4726C53.0761 36.2004 52.9405 35.9512 52.7322 35.772C52.5239 35.5928 52.2572 35.4961 51.9824 35.5ZM57.7275 58.6372C60.7541 57.9139 64.9076 56.9804 67.457 56.749C69.5045 56.5023 71.1643 60.9082 68.9321 61.8042C64.1994 63.6021 55.8613 67.5947 55.8613 67.5947C55.7295 67.6578 55.5867 67.6946 55.4409 67.7031L41.9409 68.4956C41.5686 68.5093 41.2749 68.4238 41.0327 68.352C40.175 68.0931 38.9325 67.5684 37.8144 67.0601C36.4506 66.5021 37.2225 64.4228 38.6875 64.9888L38.7739 65.0274C39.6718 65.4292 40.7777 65.9241 41.8501 66.2427L55.0937 65.4707C55.4286 65.3101 62.8573 61.7469 67.7237 59.8594C67.659 59.552 67.606 59.3801 67.3808 59.0149C65.1259 59.25 61.1556 60.1314 58.2505 60.8257C56.7793 61.1943 56.2486 58.9735 57.7275 58.6372Z"
            fill="url(#paint1_linear_0_1)" />
    </g>
    <defs>
        <filter id="filter0_d_0_1" x="21" y="21" width="60" height="60" filterUnits="userSpaceOnUse"
            color-interpolation-filters="sRGB">
            <feFlood flood-opacity="0" result="BackgroundImageFix" />
            <feColorMatrix in="SourceAlpha" type="matrix"
                values="0 0 0 0 0 0 0 0 0 0 0 0 0 0 0 0 0 0 127 0" result="hardAlpha" />
            <feOffset dx="2" dy="2" />
            <feGaussianBlur stdDeviation="3" />
            <feComposite in2="hardAlpha" operator="out" />
            <feColorMatrix type="matrix" values="0 0 0 0 0 0 0 0 0 0 0 0 0 0 0 0 0 0 0.25 0" />
            <feBlend mode="normal" in2="BackgroundImageFix" result="effect1_dropShadow_0_1" />
            <feBlend mode="normal" in="SourceGraphic" in2="effect1_dropShadow_0_1" result="shape" />
        </filter>
        <linearGradient id="paint0_linear_0_1" x1="1.97998e-06" y1="3.43237" x2="73.3005"
            y2="128.215" gradientUnits="userSpaceOnUse">
            <stop stop-color="#303439" />
            <stop offset="1" stop-color="#05070F" />
        </linearGradient>
        <linearGradient id="paint1_linear_0_1" x1="48.9985" y1="29.5" x2="48.9985" y2="68.5"
            gradientUnits="userSpaceOnUse">
            <stop stop-color="white" />
            <stop offset="1" stop-color="#857E7E" />
        </linearGradient>
    </defs>
</svg>