<svg width="98" height="98" viewBox="0 0 98 98" fill="none" xmlns="http://www.w3.org/2000/svg">
    <rect width="98" height="98" rx="40" fill="url(#paint0_linear_0_1)" />
    <g filter="url(#filter0_d_0_1)">
        <path
            d="M64.8 50.32C64.4794 49.955 64.3025 49.4858 64.3025 49C64.3025 48.5142 64.4794 48.045 64.8 47.68L67.36 44.8C67.6421 44.4853 67.8173 44.0894 67.8604 43.669C67.9035 43.2486 67.8124 42.8254 67.6 42.46L63.6 35.54C63.3898 35.175 63.0698 34.8858 62.6855 34.7134C62.3012 34.541 61.8724 34.4943 61.46 34.58L57.7 35.34C57.2216 35.4389 56.7235 35.3592 56.2998 35.116C55.8761 34.8728 55.556 34.483 55.4 34.02L54.18 30.36C54.0458 29.9628 53.7902 29.6177 53.4493 29.3737C53.1083 29.1296 52.6993 28.9989 52.28 29H44.28C43.8439 28.9772 43.4123 29.0979 43.0511 29.3434C42.69 29.589 42.4192 29.946 42.28 30.36L41.16 34.02C41.004 34.483 40.684 34.8728 40.2602 35.116C39.8365 35.3592 39.3384 35.4389 38.86 35.34L35 34.58C34.6091 34.5248 34.2106 34.5864 33.8547 34.7573C33.4988 34.9281 33.2014 35.2005 33 35.54L29 42.46C28.7823 42.8213 28.6845 43.2422 28.7204 43.6625C28.7563 44.0827 28.9242 44.4809 29.2 44.8L31.74 47.68C32.0606 48.045 32.2375 48.5142 32.2375 49C32.2375 49.4858 32.0606 49.955 31.74 50.32L29.2 53.2C28.9242 53.5191 28.7563 53.9173 28.7204 54.3376C28.6845 54.7578 28.7823 55.1787 29 55.54L33 62.46C33.2102 62.825 33.5302 63.1143 33.9145 63.2866C34.2988 63.459 34.7277 63.5057 35.14 63.42L38.9 62.66C39.3784 62.5611 39.8765 62.6408 40.3002 62.884C40.724 63.1272 41.044 63.517 41.2 63.98L42.42 67.64C42.5592 68.054 42.83 68.411 43.1911 68.6566C43.5523 68.9021 43.9839 69.0228 44.42 69H52.42C52.8393 69.0011 53.2483 68.8704 53.5893 68.6263C53.9302 68.3823 54.1858 68.0372 54.32 67.64L55.54 63.98C55.696 63.517 56.0161 63.1272 56.4398 62.884C56.8635 62.6408 57.3616 62.5611 57.84 62.66L61.6 63.42C62.0124 63.5057 62.4412 63.459 62.8255 63.2866C63.2098 63.1143 63.5298 62.825 63.74 62.46L67.74 55.54C67.9524 55.1746 68.0435 54.7514 68.0004 54.331C67.9573 53.9106 67.7821 53.5147 67.5 53.2L64.8 50.32ZM61.82 53L63.42 54.8L60.86 59.24L58.5 58.76C57.0596 58.4656 55.5611 58.7102 54.2892 59.4476C53.0172 60.185 52.0603 61.3637 51.6 62.76L50.84 65H45.72L45 62.72C44.5397 61.3237 43.5828 60.145 42.3108 59.4076C41.0389 58.6702 39.5404 58.4256 38.1 58.72L35.74 59.2L33.14 54.78L34.74 52.98C35.7239 51.88 36.2679 50.4559 36.2679 48.98C36.2679 47.5041 35.7239 46.08 34.74 44.98L33.14 43.18L35.7 38.78L38.06 39.26C39.5004 39.5544 40.9989 39.3098 42.2708 38.5724C43.5428 37.835 44.4997 36.6563 44.96 35.26L45.72 33H50.84L51.6 35.28C52.0603 36.6763 53.0172 37.855 54.2892 38.5924C55.5611 39.3298 57.0596 39.5744 58.5 39.28L60.86 38.8L63.42 43.24L61.82 45.04C60.8471 46.1375 60.3099 47.5534 60.3099 49.02C60.3099 50.4866 60.8471 51.9025 61.82 53ZM48.28 41C46.6978 41 45.151 41.4692 43.8354 42.3482C42.5198 43.2273 41.4945 44.4767 40.889 45.9385C40.2835 47.4003 40.125 49.0089 40.4337 50.5607C40.7424 52.1126 41.5043 53.538 42.6232 54.6569C43.742 55.7757 45.1674 56.5376 46.7193 56.8463C48.2711 57.155 49.8797 56.9965 51.3415 56.391C52.8033 55.7855 54.0527 54.7602 54.9318 53.4446C55.8108 52.129 56.28 50.5823 56.28 49C56.28 46.8783 55.4372 44.8434 53.9369 43.3431C52.4366 41.8429 50.4017 41 48.28 41ZM48.28 53C47.4889 53 46.7155 52.7654 46.0577 52.3259C45.3999 51.8864 44.8872 51.2616 44.5845 50.5307C44.2817 49.7998 44.2025 48.9956 44.3569 48.2196C44.5112 47.4437 44.8922 46.731 45.4516 46.1716C46.011 45.6122 46.7237 45.2312 47.4996 45.0769C48.2756 44.9225 49.0798 45.0017 49.8107 45.3045C50.5416 45.6072 51.1664 46.1199 51.6059 46.7777C52.0454 47.4355 52.28 48.2089 52.28 49C52.28 50.0609 51.8586 51.0783 51.1084 51.8284C50.3583 52.5786 49.3409 53 48.28 53Z"
            fill="url(#paint1_linear_0_1)" />
    </g>
    <defs>
        <filter id="filter0_d_0_1" x="21" y="21" width="60" height="60" filterUnits="userSpaceOnUse"
            color-interpolation-filters="sRGB">
            <feFlood flood-opacity="0" result="BackgroundImageFix" />
            <feColorMatrix in="SourceAlpha" type="matrix"
                values="0 0 0 0 0 0 0 0 0 0 0 0 0 0 0 0 0 0 127 0" result="hardAlpha" />
            <feOffset dx="2" dy="2" />
            <feGaussianBlur stdDeviation="3" />
            <feComposite in2="hardAlpha" operator="out" />
            <feColorMatrix type="matrix" values="0 0 0 0 0 0 0 0 0 0 0 0 0 0 0 0 0 0 0.25 0" />
            <feBlend mode="normal" in2="BackgroundImageFix" result="effect1_dropShadow_0_1" />
            <feBlend mode="normal" in="SourceGraphic" in2="effect1_dropShadow_0_1" result="shape" />
        </filter>
        <linearGradient id="paint0_linear_0_1" x1="1.97998e-06" y1="3.43237" x2="73.3005"
            y2="128.215" gradientUnits="userSpaceOnUse">
            <stop stop-color="#303439" />
            <stop offset="1" stop-color="#05070F" />
        </linearGradient>
        <linearGradient id="paint1_linear_0_1" x1="48.362" y1="28.9973" x2="48.362" y2="69.0027"
            gradientUnits="userSpaceOnUse">
            <stop stop-color="white" />
            <stop offset="1" stop-color="#857E7E" />
        </linearGradient>
    </defs>
</svg>