<svg width="98" height="98" viewBox="0 0 98 98" fill="none" xmlns="http://www.w3.org/2000/svg">
    <rect width="98" height="98" rx="40" fill="url(#paint0_linear_0_1)" />
    <g filter="url(#filter0_d_0_1)">
        <path fill-rule="evenodd" clip-rule="evenodd"
            d="M63 41C62.4697 40.9995 61.9613 40.7886 61.5864 40.4136C61.2114 40.0387 61.0005 39.5303 61 39V34.6626L36.08 50.6826C35.7585 50.8897 35.3843 50.9998 35.002 51C34.5697 51.0004 34.1489 50.8606 33.8027 50.6017C33.4565 50.3428 33.2035 49.9787 33.0817 49.564C32.9598 49.1492 32.9756 48.7061 33.1267 48.3011C33.2779 47.8961 33.5562 47.5509 33.92 47.3174L58.0289 31.8188L54.5156 30.9404C54.0416 30.822 53.6274 30.5342 53.3511 30.1314C53.0748 29.7285 52.9556 29.2384 53.0159 28.7536C53.0763 28.2688 53.312 27.8229 53.6786 27.5C54.0452 27.1771 54.5173 26.9996 55.0059 27.001C55.1672 27.0008 55.3279 27.0205 55.4844 27.0596L63.4626 29.0541C63.5377 29.072 63.6116 29.0942 63.684 29.1205C64.0351 29.248 64.3449 29.472 64.5766 29.7686C64.8512 30.1203 65.0003 30.5538 65 31V39C64.9995 39.5303 64.7886 40.0387 64.4136 40.4136C64.0387 40.7886 63.5303 40.9995 63 41ZM62.5864 70.4136C62.9613 70.7886 63.4697 70.9995 64 71C64.5303 70.9995 65.0387 70.7886 65.4136 70.4136C65.7886 70.0387 65.9995 69.5303 66 69V45C66 44.4696 65.7893 43.9609 65.4142 43.5858C65.0391 43.2107 64.5304 43 64 43C63.4696 43 62.9609 43.2107 62.5858 43.5858C62.2107 43.9609 62 44.4696 62 45V69C62.0005 69.5303 62.2114 70.0387 62.5864 70.4136ZM32.5864 70.4136C32.9613 70.7886 33.4697 70.9995 34 71C34.5303 70.9995 35.0387 70.7886 35.4136 70.4136C35.7886 70.0387 35.9995 69.5303 36 69V57C36 56.4696 35.7893 55.9609 35.4142 55.5858C35.0391 55.2107 34.5304 55 34 55C33.4696 55 32.9609 55.2107 32.5858 55.5858C32.2107 55.9609 32 56.4696 32 57V69C32.0005 69.5303 32.2114 70.0387 32.5864 70.4136ZM44 71C43.4697 70.9995 42.9613 70.7886 42.5864 70.4136C42.2114 70.0387 42.0005 69.5303 42 69V53C42 52.4696 42.2107 51.9609 42.5858 51.5858C42.9609 51.2107 43.4696 51 44 51C44.5304 51 45.0391 51.2107 45.4142 51.5858C45.7893 51.9609 46 52.4696 46 53V69C45.9995 69.5303 45.7886 70.0387 45.4136 70.4136C45.0387 70.7886 44.5303 70.9995 44 71ZM52.5864 70.4136C52.9613 70.7886 53.4697 70.9995 54 71C54.5303 70.9995 55.0387 70.7886 55.4136 70.4136C55.7886 70.0387 55.9995 69.5303 56 69V49C56 48.4696 55.7893 47.9609 55.4142 47.5858C55.0391 47.2107 54.5304 47 54 47C53.4696 47 52.9609 47.2107 52.5858 47.5858C52.2107 47.9609 52 48.4696 52 49V69C52.0005 69.5303 52.2114 70.0387 52.5864 70.4136Z"
            fill="url(#paint1_linear_0_1)" />
    </g>
    <defs>
        <filter id="filter0_d_0_1" x="21" y="21" width="60" height="60" filterUnits="userSpaceOnUse"
            color-interpolation-filters="sRGB">
            <feFlood flood-opacity="0" result="BackgroundImageFix" />
            <feColorMatrix in="SourceAlpha" type="matrix"
                values="0 0 0 0 0 0 0 0 0 0 0 0 0 0 0 0 0 0 127 0" result="hardAlpha" />
            <feOffset dx="2" dy="2" />
            <feGaussianBlur stdDeviation="3" />
            <feComposite in2="hardAlpha" operator="out" />
            <feColorMatrix type="matrix" values="0 0 0 0 0 0 0 0 0 0 0 0 0 0 0 0 0 0 0.25 0" />
            <feBlend mode="normal" in2="BackgroundImageFix" result="effect1_dropShadow_0_1" />
            <feBlend mode="normal" in="SourceGraphic" in2="effect1_dropShadow_0_1" result="shape" />
        </filter>
        <linearGradient id="paint0_linear_0_1" x1="1.97998e-06" y1="3.43237" x2="73.3005"
            y2="128.215" gradientUnits="userSpaceOnUse">
            <stop stop-color="#303439" />
            <stop offset="1" stop-color="#05070F" />
        </linearGradient>
        <linearGradient id="paint1_linear_0_1" x1="49" y1="27.001" x2="49" y2="71"
            gradientUnits="userSpaceOnUse">
            <stop stop-color="white" />
            <stop offset="1" stop-color="#857E7E" />
        </linearGradient>
    </defs>
</svg>