<svg width="81" height="80" viewBox="0 0 81 80" fill="none" xmlns="http://www.w3.org/2000/svg">
    <rect x="1.58594" y="1" width="78" height="78" rx="11" fill="#0B63E5" />
    <rect x="1.58594" y="1" width="78" height="78" rx="11" stroke="#F0F5FF" stroke-width="2" />
    <path
        d="M24.751 28.7493C24.5039 28.75 24.2626 28.8238 24.0574 28.9614C23.8522 29.099 23.6922 29.2943 23.5978 29.5227C23.5033 29.751 23.4785 30.002 23.5266 30.2444C23.5746 30.4867 23.6932 30.7096 23.8676 30.8846L32.9853 40.0024L23.8676 49.1201C23.4991 49.4838 23.4991 49.876 23.4991 49.9988C23.4991 50.6885 24.066 51.2508 24.751 51.2508C24.8738 51.2508 25.2801 51.2508 25.6344 50.8823L35.2671 41.2496H48.495V47.4997C48.495 48.1895 49.0619 48.7516 49.7469 48.7516C49.8744 48.7516 50.2665 48.7516 50.6303 48.3831L58.1324 40.8858C58.2486 40.77 58.3409 40.6322 58.4038 40.4806C58.4668 40.329 58.4992 40.1665 58.4992 40.0024C58.4992 39.8382 58.4668 39.6757 58.4038 39.5241C58.3409 39.3725 58.2486 39.2347 58.1324 39.1189L50.6303 31.6169C50.3764 31.4142 50.0699 31.288 49.7469 31.2531C49.4165 31.2544 49.1 31.3861 48.8663 31.6198C48.6327 31.8534 48.5009 32.1698 48.4997 32.5002V38.7505H35.2671L25.6297 29.1178C25.2754 28.7493 24.8738 28.7493 24.751 28.7493ZM50.9988 35.519L55.4821 40.0024L50.9988 44.4809V35.519Z"
        fill="white" />
</svg>
    