<svg width="80" height="80" viewBox="0 0 80 80" fill="none" xmlns="http://www.w3.org/2000/svg">
    <rect x="1" y="1" width="78" height="78" rx="11" fill="white" />
    <rect x="1" y="1" width="78" height="78" rx="11" stroke="#F0F5FF" stroke-width="2" />
    <path
        d="M40 38.6667C38.5496 38.6667 37.1317 38.2366 35.9258 37.4308C34.7198 36.625 33.7799 35.4797 33.2248 34.1397C32.6698 32.7997 32.5246 31.3252 32.8075 29.9027C33.0905 28.4801 33.7889 27.1735 34.8145 26.1479C35.8401 25.1223 37.1468 24.4239 38.5693 24.1409C39.9918 23.858 41.4663 24.0032 42.8063 24.5582C44.1463 25.1133 45.2916 26.0532 46.0974 27.2592C46.9032 28.4651 47.3333 29.8829 47.3333 31.3333C47.3298 33.2772 46.556 35.1404 45.1815 36.5149C43.807 37.8894 41.9438 38.6631 40 38.6667ZM40 26.6667C39.077 26.6667 38.1747 26.9404 37.4073 27.4531C36.6399 27.9659 36.0417 28.6948 35.6885 29.5475C35.3353 30.4002 35.2429 31.3385 35.423 32.2438C35.603 33.149 36.0475 33.9805 36.7001 34.6332C37.3528 35.2858 38.1843 35.7303 39.0895 35.9103C39.9948 36.0904 40.9331 35.998 41.7858 35.6448C42.6385 35.2916 43.3674 34.6934 43.8801 33.926C44.3929 33.1586 44.6666 32.2563 44.6666 31.3333C44.6666 30.0957 44.175 28.9087 43.2998 28.0335C42.4246 27.1583 41.2376 26.6667 40 26.6667ZM30 52.6667C29.6463 52.6667 29.3072 52.5262 29.0572 52.2761C28.8071 52.0261 28.6666 51.687 28.6666 51.3333C28.6666 49.2286 29.2527 47.1654 30.3593 45.3751C31.4658 43.5847 33.049 42.1378 34.9315 41.1965C36.8141 40.2552 38.9215 39.8568 41.0178 40.0458C43.114 40.2348 45.1162 41.0038 46.8 42.2667C46.94 42.3717 47.058 42.5033 47.1473 42.654C47.2365 42.8047 47.2951 42.9714 47.3199 43.1448C47.3447 43.3181 47.335 43.4946 47.2916 43.6642C47.2481 43.8339 47.1717 43.9933 47.0666 44.1333C46.9616 44.2734 46.8299 44.3914 46.6793 44.4806C46.5286 44.5698 46.3619 44.6285 46.1885 44.6533C46.0152 44.678 45.8387 44.6684 45.6691 44.625C45.4994 44.5815 45.34 44.5051 45.2 44.4C43.7025 43.2696 41.8761 42.6608 40 42.6667C37.7025 42.6702 35.5001 43.5844 33.8756 45.209C32.251 46.8335 31.3368 49.0359 31.3333 51.3333C31.3333 51.687 31.1928 52.0261 30.9428 52.2761C30.6927 52.5262 30.3536 52.6667 30 52.6667ZM50.6666 56C50.313 56 49.9739 55.8595 49.7238 55.6095C49.4738 55.3594 49.3333 55.0203 49.3333 54.6667V46.6667C49.3333 46.313 49.4738 45.9739 49.7238 45.7239C49.9739 45.4738 50.313 45.3333 50.6666 45.3333C51.0202 45.3333 51.3594 45.4738 51.6094 45.7239C51.8595 45.9739 52 46.313 52 46.6667V54.6667C52 55.0203 51.8595 55.3594 51.6094 55.6095C51.3594 55.8595 51.0202 56 50.6666 56Z"
        fill="#0B63E5" />
    <path
        d="M54.6667 52H46.6667C46.3131 52 45.9739 51.8595 45.7239 51.6095C45.4738 51.3594 45.3334 51.0203 45.3334 50.6667C45.3334 50.313 45.4738 49.9739 45.7239 49.7239C45.9739 49.4738 46.3131 49.3333 46.6667 49.3333H54.6667C55.0203 49.3333 55.3595 49.4738 55.6095 49.7239C55.8596 49.9739 56 50.313 56 50.6667C56 51.0203 55.8596 51.3594 55.6095 51.6095C55.3595 51.8595 55.0203 52 54.6667 52Z"
        fill="#0B63E5" />
</svg>
    