<svg width="81" height="80" viewBox="0 0 81 80" fill="none" xmlns="http://www.w3.org/2000/svg">
    <rect x="1.17188" y="1" width="78" height="78" rx="11" fill="white" />
    <rect x="1.17188" y="1" width="78" height="78" rx="11" stroke="#F0F5FF" stroke-width="2" />
    <g clip-path="url(#clip0_28_2921)">
        <path
            d="M40.2994 51.0544C40.1663 51.0544 40.0331 51.0531 39.9 51.0506C38.895 51.03 38.2888 50.5994 37.9319 49.6525L37.8113 49.3269C37.6738 48.9531 37.5444 48.5994 37.3825 48.285C37.1038 47.7444 36.2931 47.4394 35.7144 47.6563C35.4256 47.765 35.1356 47.9031 34.8288 48.0494C34.7025 48.1099 34.5758 48.1697 34.4488 48.2288C33.5738 48.6325 32.8175 48.5006 32.1381 47.8256C32.0613 47.7494 31.9831 47.6769 31.9075 47.6056C31.47 47.1969 30.9256 46.6875 30.8831 45.8581C30.8708 45.564 30.9198 45.2705 31.0269 44.9963C31.0416 44.8365 31.046 44.676 31.04 44.5156C30.9387 44.4007 30.8663 44.2632 30.829 44.1146C30.7917 43.966 30.7905 43.8106 30.8255 43.6615C30.8605 43.5123 30.9307 43.3737 31.0302 43.2572C31.1297 43.1407 31.2556 43.0497 31.3975 42.9919C31.5916 42.9118 31.8051 42.8914 32.0108 42.9333C32.2166 42.9751 32.4051 43.0774 32.5525 43.2269C33.19 43.8706 32.9225 45.44 32.8369 45.645C32.819 45.6809 32.8072 45.7196 32.8019 45.7594C32.83 45.8388 33.0644 46.0575 33.2194 46.2025C33.3094 46.2869 33.4013 46.3731 33.4919 46.4631C33.5181 46.4894 33.5394 46.5081 33.5556 46.5213C33.5769 46.5138 33.6063 46.5019 33.645 46.4844C33.7644 46.4294 33.8838 46.3725 34.0025 46.3156C34.3325 46.1588 34.6731 45.9963 35.0388 45.8588C36.5413 45.2931 38.3594 45.9869 39.0906 47.4044C39.3081 47.8256 39.4644 48.2525 39.6163 48.6656L39.7306 48.975C39.7575 49.0456 39.7788 49.0919 39.7931 49.12C39.8238 49.1244 39.87 49.1288 39.9388 49.13C40.2169 49.135 40.4969 49.1344 40.7756 49.1281C40.8081 49.1269 40.8319 49.125 40.8488 49.1225C40.8588 49.1044 40.8719 49.0756 40.8869 49.0344C40.9219 48.9381 40.9581 48.8431 40.9938 48.7481C41.0813 48.5169 41.1638 48.2988 41.2263 48.0869C41.5506 46.9788 42.3438 46.2106 43.5825 45.8044C44.2488 45.5856 44.8756 45.5919 45.445 45.8213C45.6413 45.9006 45.8444 46.0025 46.0413 46.1006C46.3113 46.2363 46.945 46.5513 47.1169 46.49L47.3163 46.2988C47.6375 45.9913 47.8319 45.7925 47.8206 45.6306C47.8075 45.4369 47.6625 45.1713 47.5094 44.8906C47.3831 44.6588 47.2394 44.3963 47.135 44.1081C46.785 43.1419 47.0794 41.8 47.8356 40.9181C48.0041 40.7342 48.2376 40.6229 48.4866 40.6079C48.7356 40.5929 48.9807 40.6753 49.1701 40.8377C49.3595 41 49.4783 41.2297 49.5015 41.4781C49.5247 41.7264 49.4504 41.9741 49.2944 42.1688C48.9756 42.5406 48.8406 43.1756 48.9413 43.4531C48.9963 43.6038 49.0931 43.7813 49.1956 43.9694C49.4188 44.3775 49.6963 44.8856 49.7381 45.5C49.8113 46.5694 49.1106 47.2413 48.6463 47.6856C48.5925 47.7375 48.5388 47.7888 48.4863 47.8406C47.3925 48.925 45.955 48.205 45.1825 47.8188C45.0125 47.7338 44.8519 47.6531 44.7269 47.6031C44.6244 47.5613 44.4794 47.5331 44.1819 47.63C43.5381 47.8413 43.2163 48.13 43.0706 48.6269C42.9875 48.91 42.8881 49.1738 42.7913 49.4288L42.6919 49.6944C42.3756 50.5606 41.7269 51.0294 40.8175 51.0488C40.6438 51.0525 40.4719 51.0544 40.2994 51.0544Z"
            fill="#197EFA" />
        <path
            d="M57.4313 54.1875H22.5681C21.874 54.1865 21.2085 53.9103 20.7177 53.4193C20.2269 52.9284 19.9508 52.2629 19.95 51.5687V39.025C19.9508 38.6363 20.1052 38.2637 20.3794 37.9882C20.6537 37.7128 21.0257 37.5568 21.4144 37.5544L28.1156 37.5275C28.3594 36.6912 28.7275 36.1881 29.235 35.9937L29.5775 35.8644C30.0069 35.7037 30.4119 35.5525 30.7756 35.3606C31.2138 35.13 31.5294 34.295 31.3581 33.82C31.2488 33.5187 31.1056 33.2156 30.9538 32.895C30.8919 32.7637 30.83 32.6325 30.7694 32.5006C30.3538 31.5894 30.4856 30.8387 31.1838 30.1381C31.3825 29.9381 31.5825 29.7381 31.7831 29.5387C32.5006 28.8231 33.2031 28.6937 34.1306 29.1062C34.5731 29.3025 35.0194 29.4894 35.5538 29.7087C35.7031 29.77 35.8769 29.7769 36.0425 29.7269C36.8925 29.4725 37.1113 29.12 37.2206 28.7775C37.2881 28.5656 37.365 28.3556 37.4425 28.1462C37.5013 27.9875 37.56 27.8281 37.6131 27.6675C37.8994 26.8044 38.5869 26.2981 39.4994 26.2787C39.8545 26.2688 40.2099 26.2701 40.565 26.2825C41.41 26.3169 42.0631 26.7944 42.3563 27.5937C42.5329 28.0712 42.7165 28.546 42.9069 29.0181C43.0038 29.2606 43.185 29.455 43.7875 29.6737C44.1113 29.7912 44.4969 29.7606 44.8456 29.5887C45.2164 29.4086 45.59 29.2342 45.9663 29.0656C46.3215 28.9055 46.7167 28.8559 47.1004 28.9233C47.4842 28.9908 47.8388 29.1721 48.1181 29.4437C48.3719 29.6937 48.6231 29.9462 48.8738 30.2C49.4956 30.83 49.6313 31.5712 49.2756 32.4044L49.0975 32.815C48.9081 33.2462 48.7294 33.6544 48.6019 34.0631C48.47 34.4856 48.7019 35.065 49.0881 35.2775C49.5788 35.5475 50.1331 35.7581 50.61 35.9287C51.2519 36.1575 51.6256 36.8056 51.835 37.3662L58.1288 37.3806V25.1169C58.1288 24.7325 57.8163 24.42 57.4319 24.42H22.5681C22.1838 24.42 21.8713 24.7325 21.8713 25.1169V35.3094C21.8713 35.5641 21.7701 35.8085 21.5899 35.9886C21.4097 36.1688 21.1654 36.27 20.9106 36.27C20.6559 36.27 20.4115 36.1688 20.2314 35.9886C20.0512 35.8085 19.95 35.5641 19.95 35.3094V25.1169C19.9508 24.4228 20.2269 23.7573 20.7178 23.2665C21.2086 22.7757 21.874 22.4996 22.5681 22.4987H57.4313C58.1254 22.4996 58.7908 22.7757 59.2816 23.2665C59.7725 23.7573 60.0486 24.4228 60.0494 25.1169V37.7819C60.0494 38.1887 59.8906 38.5712 59.6025 38.8581C59.4617 38.9994 59.2944 39.1114 59.1101 39.1877C58.9258 39.264 58.7282 39.303 58.5288 39.3025H58.5244L51.3394 39.2862C51.061 39.286 50.7907 39.1928 50.5713 39.0215C50.3519 38.8502 50.1959 38.6106 50.1281 38.3406C50.0556 38.0537 49.9394 37.8062 49.8675 37.7037C49.3394 37.5131 48.735 37.2769 48.16 36.96C46.9756 36.3075 46.3638 34.7837 46.7663 33.4912C46.9256 32.98 47.1344 32.5031 47.3369 32.0425C47.3944 31.9112 47.4519 31.7806 47.5075 31.6494C47.52 31.6206 47.5288 31.5975 47.5344 31.58C47.2813 31.3225 47.0265 31.0666 46.77 30.8125C46.4025 30.9769 46.045 31.1387 45.6931 31.3119C44.8775 31.7137 43.9431 31.775 43.1306 31.4787C42.4731 31.24 41.5494 30.7981 41.1225 29.7306C40.9254 29.2417 40.7354 28.75 40.5525 28.2556C40.5464 28.2385 40.5391 28.2218 40.5306 28.2056C40.5163 28.2034 40.502 28.2019 40.4875 28.2012C40.1718 28.1908 39.8558 28.1899 39.54 28.1987C39.5129 28.1987 39.4859 28.2014 39.4594 28.2069C39.4581 28.2144 39.4475 28.2356 39.4363 28.2706C39.3763 28.4512 39.3106 28.6306 39.2444 28.8094C39.1769 28.9919 39.1094 29.1744 39.0506 29.3594C38.7019 30.4537 37.8975 31.1756 36.5925 31.5662C36.0109 31.7415 35.3869 31.7128 34.8238 31.485C34.3292 31.2843 33.8377 31.0761 33.3494 30.8606C33.3104 30.8431 33.2708 30.827 33.2306 30.8125C33.1988 30.8401 33.1679 30.8689 33.1381 30.8987L32.5438 31.4931C32.5163 31.5202 32.4903 31.5485 32.4656 31.5781C32.4756 31.6069 32.4913 31.6469 32.5163 31.7019C32.5725 31.8256 32.6313 31.9487 32.6894 32.0719C32.8538 32.4187 33.0238 32.7781 33.1638 33.165C33.6669 34.5562 32.9681 36.3762 31.6688 37.0594C31.1975 37.3075 30.7156 37.4875 30.2494 37.6619L30.0856 37.7237C30.0051 37.9027 29.9435 38.0895 29.9019 38.2812C29.8266 38.6112 29.6418 38.9059 29.3776 39.1173C29.1133 39.3288 28.7853 39.4445 28.4469 39.4456L21.8713 39.4737V51.5687C21.8713 51.9531 22.1838 52.2656 22.5681 52.2656H57.4313C57.8156 52.2656 58.1281 51.9531 58.1281 51.5687V44.0356C58.1281 43.7808 58.2293 43.5365 58.4095 43.3564C58.5897 43.1762 58.834 43.075 59.0888 43.075C59.3435 43.075 59.5879 43.1762 59.768 43.3564C59.9482 43.5365 60.0494 43.7808 60.0494 44.0356V51.5687C60.0487 52.263 59.7727 52.9286 59.2819 53.4195C58.791 53.9105 58.1255 54.1867 57.4313 54.1875ZM47.4775 57.5012H32.5225C32.2677 57.5012 32.0234 57.4 31.8432 57.2199C31.6631 57.0397 31.5619 56.7954 31.5619 56.5406C31.5619 56.2859 31.6631 56.0415 31.8432 55.8614C32.0234 55.6812 32.2677 55.58 32.5225 55.58H47.4775C47.7323 55.58 47.9766 55.6812 48.1568 55.8614C48.3369 56.0415 48.4381 56.2859 48.4381 56.5406C48.4381 56.7954 48.3369 57.0397 48.1568 57.2199C47.9766 57.4 47.7323 57.5012 47.4775 57.5012Z"
            fill="#197EFA" />
        <path
            d="M40 43.7894C36.9969 43.7894 34.5531 41.3463 34.5531 38.3425C34.5531 35.3394 36.9963 32.8963 40 32.8963C43.0031 32.8963 45.4463 35.3394 45.4463 38.3425C45.4463 41.3463 43.0031 43.7894 40 43.7894ZM40 34.8181C38.0563 34.8181 36.475 36.3994 36.475 38.3431C36.475 40.2869 38.0563 41.8681 40 41.8681C41.9438 41.8681 43.525 40.2869 43.525 38.3431C43.525 36.3994 41.9438 34.8181 40 34.8181Z"
            fill="#197EFA" />
        <path
            d="M30.5769 41.9569C31.1209 41.9569 31.5619 41.5159 31.5619 40.9719C31.5619 40.4279 31.1209 39.9869 30.5769 39.9869C30.0329 39.9869 29.5919 40.4279 29.5919 40.9719C29.5919 41.5159 30.0329 41.9569 30.5769 41.9569Z"
            fill="#197EFA" />
    </g>
    <defs>
        <clipPath id="clip0_28_2921">
            <rect width="40" height="40" fill="white" transform="translate(20 20)" />
        </clipPath>
    </defs>
</svg>
    